<mxfile host="app.diagrams.net" modified="2023-11-14T15:38:50.934Z" agent="Mozilla/5.0 (Macintosh; Intel Mac OS X 10_15_7) AppleWebKit/537.36 (KHTML, like Gecko) Chrome/117.0.0.0 Safari/537.36" version="21.7.5" etag="9_8EcuCmJhb9m89D2Wm5" type="github">
  <diagram name="第 1 页" id="Fo9l7mYEGavvm06oITEK">
    <mxGraphModel>
      <root>
        <mxCell id="0" />
        <mxCell id="1" parent="0" />
      </root>
    </mxGraphModel>
  </diagram>
</mxfile>
